HIERARCHY
ROOT Hips
{
	OFFSET 0.000000 0.000000 0.000000
	CHANNELS 6 Xposition Yposition Zposition Zrotation Yrotation Xrotation 
	JOINT LHipJoint
	{
		OFFSET 0.000000 0.000000 0.000000
		CHANNELS 3 Zrotation Yrotation Xrotation
		JOINT LeftUpLeg
		{
			OFFSET 1.363060 -1.794630 0.839290
			CHANNELS 3 Zrotation Yrotation Xrotation
			JOINT LeftLeg
			{
				OFFSET 2.448110 -6.726130 0.000000
				CHANNELS 3 Zrotation Yrotation Xrotation
				JOINT LeftFoot
				{
					OFFSET 2.562200 -7.039590 0.000000
					CHANNELS 3 Zrotation Yrotation Xrotation
					JOINT LeftToeBase
					{
						OFFSET 0.157640 -0.433110 2.322550
						CHANNELS 3 Zrotation Yrotation Xrotation
						End Site
						{
							OFFSET 0.000000 0.000000 0.000000
						}
					}
				}
			}
		}
	}
	JOINT RHipJoint
	{
		OFFSET 0.000000 0.000000 0.000000
		CHANNELS 3 Zrotation Yrotation Xrotation
		JOINT RightUpLeg
		{
			OFFSET -1.305520 -1.794630 0.839290
			CHANNELS 3 Zrotation Yrotation Xrotation
			JOINT RightLeg
			{
				OFFSET -2.542530 -6.985550 0.000000
				CHANNELS 3 Zrotation Yrotation Xrotation
				JOINT RightFoot
				{
					OFFSET -2.568260 -7.056230 0.000000
					CHANNELS 3 Zrotation Yrotation Xrotation
					JOINT RightToeBase
					{
						OFFSET -0.164730 -0.452590 2.363150
						CHANNELS 3 Zrotation Yrotation Xrotation
						End Site
						{
							OFFSET 0.000000 0.000000 0.000000
						}
					}
				}
			}
		}
	}
	JOINT LowerBack
	{
		OFFSET 0.000000 0.000000 0.000000
		CHANNELS 3 Zrotation Yrotation Xrotation
		JOINT Spine
		{
			OFFSET 0.028270 2.035590 -0.193380
			CHANNELS 3 Zrotation Yrotation Xrotation
			JOINT Spine1
			{
				OFFSET 0.056720 2.048850 -0.042750
				CHANNELS 3 Zrotation Yrotation Xrotation
				JOINT Neck
				{
					OFFSET 0.000000 0.000000 0.000000
					CHANNELS 3 Zrotation Yrotation Xrotation
					JOINT Neck1
					{
						OFFSET -0.054170 1.746240 0.172020
						CHANNELS 3 Zrotation Yrotation Xrotation
						JOINT Head
						{
							OFFSET 0.104070 1.761360 -0.123970
							CHANNELS 3 Zrotation Yrotation Xrotation
							End Site
							{
								OFFSET 0.000000 0.000000 0.000000
							}
						}
					}
				}
				JOINT LeftShoulder
				{
					OFFSET 0.000000 0.000000 0.000000
					CHANNELS 3 Zrotation Yrotation Xrotation
					JOINT LeftArm
					{
						OFFSET 3.362410 1.200890 -0.311210
						CHANNELS 3 Zrotation Yrotation Xrotation
						JOINT LeftForeArm
						{
							OFFSET 4.983000 -0.000000 -0.000000
							CHANNELS 3 Zrotation Yrotation Xrotation
							JOINT LeftHand
							{
								OFFSET 3.483560 -0.000000 -0.000000
								CHANNELS 3 Zrotation Yrotation Xrotation
								JOINT LeftFingerBase
								{
									OFFSET 0.000000 0.000000 0.000000
									CHANNELS 3 Zrotation Yrotation Xrotation
									JOINT LeftHandIndex1
									{
										OFFSET 0.715260 -0.000000 -0.000000
										CHANNELS 3 Zrotation Yrotation Xrotation
										End Site
										{
											OFFSET 0.000000 0.000000 0.000000
										}
									}
								}
								JOINT LThumb
								{
									OFFSET 0.000000 0.000000 0.000000
									CHANNELS 3 Zrotation Yrotation Xrotation
									End Site
									{
										OFFSET 0.000000 0.000000 0.000000
									}
								}
							}
						}
					}
				}
				JOINT RightShoulder
				{
					OFFSET 0.000000 0.000000 0.000000
					CHANNELS 3 Zrotation Yrotation Xrotation
					JOINT RightArm
					{
						OFFSET -3.136600 1.374050 -0.404650
						CHANNELS 3 Zrotation Yrotation Xrotation
						JOINT RightForeArm
						{
							OFFSET -5.241900 -0.000000 -0.000000
							CHANNELS 3 Zrotation Yrotation Xrotation
							JOINT RightHand
							{
								OFFSET -3.444170 -0.000000 -0.000000
								CHANNELS 3 Zrotation Yrotation Xrotation
								JOINT RightFingerBase
								{
									OFFSET 0.000000 0.000000 0.000000
									CHANNELS 3 Zrotation Yrotation Xrotation
									JOINT RightHandIndex1
									{
										OFFSET -0.622530 -0.000000 -0.000000
										CHANNELS 3 Zrotation Yrotation Xrotation
										End Site
										{
											OFFSET 0.000000 0.000000 0.000000
										}
									}
								}
								JOINT RThumb
								{
									OFFSET 0.000000 0.000000 0.000000
									CHANNELS 3 Zrotation Yrotation Xrotation
									End Site
									{
										OFFSET 0.000000 0.000000 0.000000
									}
								}
							}
						}
					}
				}
			}
		}
	}
}
MOTION
Frames: 12
Frame Time: 0.008333
0.869194 17.912423 1.959528 4.642227 -7.041711 -12.796289 -6.056348 7.439580 7.907540 -12.523148 5.590238 -6.240321 2.929466 10.624659 37.535570 -2.731035 10.428943 7.419891 2.235100 -9.339500 -26.863100 2.337541 -7.466171 5.881083 2.256892 3.028015 -10.313633 -4.316183 -13.494996 42.400059 -1.399206 -2.833004 7.957153 -2.831000 10.416300 -30.335500 1.181731 -0.069290 -8.209979 2.974162 -0.743683 2.594584 4.899362 0.258746 8.192973 4.481883 2.944065 4.940619 2.218583 3.480943 0.642296 -3.153000 1.437800 -4.561700 -5.980178 -9.235577 0.862241 13.667535 -21.584135 -55.219433 118.510378 -61.311371 -96.381398 0.599104 -2.705166 -29.879675 -25.398329 18.724853 -9.669300 -7.125000 0.000000 0.000000 -48.142100 45.928900 -1.451600 9.525957 10.218484 2.903456 -19.528449 25.288733 -75.273117 -75.240695 61.536055 -68.030803 1.054148 0.321277 -24.807217 34.202578 0.834120 0.661200 7.125000 0.000000 0.000000 40.679400 -25.263100 26.722100 
0.868975 17.913410 1.954589 4.789231 -6.914802 -12.759077 -6.063845 7.406831 7.898901 -12.691530 5.582032 -6.279057 2.914217 10.607163 37.485907 -2.807254 10.561042 7.441831 2.288900 -9.443500 -27.192700 2.318143 -7.464957 5.870260 2.104100 2.961555 -10.406738 -4.338176 -13.519787 42.417705 -1.359254 -2.927811 7.969366 -2.908300 10.545200 -30.760800 1.104246 -0.012798 -8.227360 2.940686 -0.662589 2.582701 4.931205 0.298258 8.113769 4.725646 2.911625 5.025967 2.270565 3.494204 0.663729 -3.156000 1.437400 -4.561100 -6.098980 -9.242701 0.826266 12.910288 -21.240964 -54.937037 119.089758 -61.113620 -96.888069 0.542667 -2.700997 -30.199244 -25.733423 18.734557 -9.785400 -7.125000 0.000000 0.000000 -48.327300 45.880000 -1.384800 9.573458 10.272031 2.856924 -19.267552 25.700092 -75.665531 -75.594643 61.694068 -68.352101 1.096278 0.418010 -25.899173 33.533828 0.842889 0.610700 7.125000 0.000000 0.000000 40.397700 -25.501400 26.032200 
0.869414 17.914288 1.948334 4.791741 -6.810962 -12.690525 -6.063703 7.383245 7.888675 -12.697549 5.566013 -6.349336 2.901013 10.602823 37.450711 -2.771448 10.504116 7.527481 2.285300 -9.436600 -27.170700 2.323203 -7.454426 5.856573 2.090195 2.895033 -10.491600 -4.350444 -13.533918 42.440131 -1.310874 -3.022862 7.959773 -2.933800 10.587100 -30.899600 1.205646 0.037922 -8.273693 2.932141 -0.616750 2.597697 4.918636 0.333595 8.128305 4.860978 2.887544 4.946305 2.391713 3.497916 0.736012 -3.106400 1.435100 -4.511200 -6.209084 -9.242513 0.787226 12.217456 -20.855926 -54.716777 119.528454 -60.970730 -97.295984 0.496773 -2.701809 -30.615554 -25.926851 18.740341 -9.840700 -7.125000 0.000000 0.000000 -48.414600 45.852200 -1.345400 9.621164 10.321197 2.808294 -19.049137 26.090524 -76.067387 -76.016766 61.886027 -68.738163 1.129985 0.534637 -27.270881 32.721045 0.736649 0.479200 7.125000 0.000000 0.000000 40.089300 -25.880400 25.131400 
0.867109 17.914508 1.941968 4.846091 -6.668148 -12.651656 -6.059909 7.358503 7.873520 -12.746886 5.549307 -6.401203 2.894962 10.603138 37.444647 -2.742805 10.454179 7.583623 2.313600 -9.490800 -27.342900 2.314880 -7.452643 5.850817 2.032419 2.826857 -10.549402 -4.360582 -13.544606 42.462932 -1.452971 -2.756408 8.007747 -2.793200 10.352600 -30.126100 1.181915 0.039391 -8.271525 2.918434 -0.619248 2.620934 4.955957 0.332653 8.170826 5.001047 2.881670 4.721741 2.547807 3.525615 0.899937 -3.043700 1.449200 -4.396300 -6.320614 -9.229890 0.739938 11.507812 -20.373449 -54.456261 120.010647 -60.808853 -97.737869 0.459037 -2.711464 -30.937657 -26.036132 18.721966 -9.856200 -7.125000 0.000000 0.000000 -48.437900 45.825300 -1.304400 9.666499 10.366773 2.779306 -18.916655 26.553456 -76.509159 -76.378969 62.049984 -69.031021 1.159741 0.640203 -28.571776 32.045323 0.657402 0.381900 7.125000 0.000000 0.000000 39.812700 -26.176200 24.406900 
0.863268 17.914178 1.939115 4.830248 -6.533661 -12.627381 -6.047536 7.349020 7.863196 -12.716384 5.519634 -6.429321 2.898285 10.614699 37.468415 -2.700434 10.380801 7.610575 2.344100 -9.548700 -27.527300 2.322051 -7.458672 5.853388 2.054599 2.759067 -10.562017 -4.368852 -13.547438 42.477922 -1.365407 -2.922797 7.948947 -2.842500 10.435700 -30.399400 1.238086 0.056718 -8.265138 2.920666 -0.611200 2.644580 4.975524 0.344332 8.191915 5.136904 2.876366 4.623210 2.666079 3.552397 0.975360 -2.996800 1.459000 -4.341100 -6.442672 -9.219292 0.701935 10.753238 -19.957234 -54.152982 120.619258 -60.585221 -98.236257 0.434275 -2.705741 -31.036034 -26.146110 18.910876 -9.969400 -7.125000 0.000000 0.000000 -48.626500 45.946500 -1.503700 9.718274 10.404791 2.755686 -18.755140 26.959398 -76.788922 -76.655288 62.163931 -69.229813 1.206841 0.750779 -29.796975 31.491755 0.789172 0.419300 7.125000 0.000000 0.000000 39.490000 -26.243300 23.961900 
0.859975 17.915386 1.936920 4.719894 -6.421582 -12.601041 -6.032125 7.352355 7.857308 -12.573730 5.495400 -6.464899 2.899727 10.627979 37.478642 -2.620217 10.248813 7.677448 2.324600 -9.511700 -27.409500 2.350356 -7.463614 5.861881 2.168807 2.715096 -10.545689 -4.362347 -13.536301 42.470190 -1.244087 -3.145311 7.874689 -2.901600 10.534000 -30.724100 1.410872 0.100977 -8.253432 2.942672 -0.583245 2.665306 4.973220 0.378104 8.182201 5.177968 2.871886 4.619256 2.834129 3.560241 0.987068 -2.910600 1.455600 -4.330600 -6.568983 -9.219633 0.671496 9.997208 -19.600993 -53.821286 121.148232 -60.379966 -98.674127 0.398302 -2.682075 -31.123865 -26.426729 19.108723 -10.155500 -7.125000 0.000000 0.000000 -48.927800 46.034200 -1.658500 9.770612 10.433182 2.719924 -18.545939 27.282720 -76.898024 -76.984301 62.290345 -69.472984 1.255362 0.875307 -31.008932 30.915151 1.010047 0.500300 7.125000 0.000000 0.000000 39.114100 -26.237600 23.568000 
0.856134 17.916812 1.932530 4.544968 -6.331932 -12.546248 -6.023437 7.361016 7.850244 -12.346255 5.529153 -6.557989 2.893347 10.632607 37.428750 -2.578401 10.201688 7.831409 2.350100 -9.560100 -27.563500 2.398004 -7.458119 5.872278 2.340205 2.719206 -10.527605 -4.332004 -13.509264 42.423679 -1.289997 -3.043770 7.899313 -2.754700 10.286900 -29.910800 1.656743 0.151828 -8.267735 2.969978 -0.556604 2.683562 4.937229 0.418100 8.165506 5.240237 2.860510 4.698074 3.004183 3.563548 0.953007 -2.825700 1.446100 -4.353700 -6.693262 -9.219702 0.643064 9.264165 -19.249792 -53.427263 121.575815 -60.212424 -99.025545 0.388181 -2.680596 -31.183672 -26.386574 19.224882 -10.179500 -7.125000 0.000000 0.000000 -48.972800 46.124900 -1.805000 9.818992 10.459151 2.678885 -18.329789 27.609568 -76.988894 -77.371227 62.441857 -69.768205 1.275989 0.979749 -32.124124 30.346703 1.043909 0.476000 7.125000 0.000000 0.000000 38.816200 -26.381400 23.067600 
0.850866 17.925702 1.930335 4.496472 -6.182766 -12.539693 -6.017270 7.377435 7.852138 -12.235141 5.571274 -6.576530 2.864583 10.607824 37.334886 -2.400627 9.903368 8.037658 2.295200 -9.455700 -27.231600 2.427715 -7.475652 5.894721 2.390566 2.719923 -10.461681 -4.297818 -13.477346 42.326939 -1.273203 -3.079614 7.950441 -2.688600 10.173000 -29.538800 1.751189 0.174096 -8.263448 2.963002 -0.541279 2.716126 4.886550 0.437505 8.171386 5.414087 2.785548 4.760297 3.051902 3.507896 0.927824 -2.811100 1.411100 -4.372200 -6.804525 -9.208359 0.619939 8.624535 -18.919634 -53.071334 121.944881 -60.066107 -99.329591 0.372077 -2.664205 -31.187474 -26.502544 19.373221 -10.284200 -7.125000 0.000000 0.000000 -49.144400 46.205800 -1.944400 9.866386 10.489826 2.643630 -18.100978 27.941424 -77.055415 -77.716046 62.569680 -70.008053 1.302275 1.067457 -33.355414 29.957466 1.013675 0.435600 7.125000 0.000000 0.000000 38.613000 -26.519700 22.680800 
0.845050 17.938762 1.932530 4.686087 -5.883917 -12.624604 -6.009535 7.396120 7.864254 -12.385513 5.547754 -6.427949 2.825766 10.556647 37.227778 -2.291714 9.701522 8.145976 2.305200 -9.474800 -27.292300 2.405162 -7.541987 5.937900 2.196347 2.608634 -10.351359 -4.283730 -13.454850 42.218206 -1.272109 -3.115179 8.012869 -2.669300 10.139500 -29.429600 1.545881 0.163998 -8.232972 2.918281 -0.526077 2.755079 4.909092 0.431357 8.190420 5.462037 2.682185 4.792760 3.101957 3.393423 0.935243 -2.773100 1.354500 -4.377000 -6.915188 -9.200412 0.597087 8.010009 -18.622833 -52.673913 122.278794 -59.919542 -99.613655 0.335739 -2.638062 -31.259821 -26.809490 19.475249 -10.443600 -7.125000 0.000000 0.000000 -49.393900 46.213900 -1.974100 9.906848 10.499894 2.625001 -17.914026 28.228485 -77.069727 -77.882188 62.616383 -70.067989 1.358818 1.141402 -34.711142 29.894371 1.075206 0.473300 7.125000 0.000000 0.000000 38.509900 -26.481100 22.627000 
0.839782 17.943810 1.934506 4.838953 -5.551329 -12.689605 -5.998601 7.407194 7.877365 -12.514363 5.462298 -6.285636 2.783931 10.509827 37.113938 -2.201634 9.536090 8.274434 2.281600 -9.429600 -27.148700 2.389751 -7.601715 5.974777 2.028173 2.483343 -10.267540 -4.280108 -13.440774 42.137248 -1.179239 -3.321141 8.016004 -2.720300 10.227900 -29.718000 1.383164 0.166304 -8.219377 2.863211 -0.497762 2.772051 4.877979 0.437057 8.159138 5.507244 2.570097 4.875454 3.207331 3.263730 0.989931 -2.714000 1.292000 -4.370100 -7.024252 -9.199686 0.584278 7.436896 -18.372632 -52.118623 122.532400 -59.794922 -99.830743 0.302648 -2.627879 -31.278988 -27.034241 19.407341 -10.497600 -7.125000 0.000000 0.000000 -49.468500 46.117900 -1.824700 9.949274 10.510804 2.578996 -17.591884 28.406628 -76.881105 -78.095930 62.670694 -70.194646 1.406592 1.212856 -35.948679 29.806776 1.118049 0.498400 7.125000 0.000000 0.000000 38.406500 -26.464700 22.544500 
0.833746 17.942383 1.930884 4.896292 -5.242667 -12.654917 -5.992684 7.392916 7.876598 -12.547294 5.382198 -6.289127 2.748998 10.485038 37.014391 -2.136318 9.429311 8.451127 2.296600 -9.458400 -27.240000 2.403418 -7.621315 5.988735 1.972321 2.397300 -10.271989 -4.280794 -13.436973 42.094176 -1.002311 -3.671487 7.963764 -2.807100 10.376100 -30.203400 1.325271 0.162054 -8.229748 2.805132 -0.491732 2.743395 4.779933 0.441161 8.057656 5.614582 2.494543 4.971979 3.335383 3.192382 1.111991 -2.662900 1.260200 -4.335000 -7.121218 -9.195526 0.574962 6.921452 -18.120534 -51.543111 122.739844 -59.680257 -100.028752 0.228600 -2.582282 -31.295115 -27.785142 19.330014 -10.762300 -7.125000 0.000000 0.000000 -49.854500 45.907300 -1.504500 9.987015 10.526213 2.528874 -17.214410 28.614133 -76.542351 -78.271409 62.695770 -70.272139 1.451270 1.271611 -37.062506 29.816318 1.159934 0.529600 7.125000 0.000000 0.000000 38.353000 -26.421700 22.545900 
0.827710 17.939091 1.925726 4.942815 -4.909096 -12.643473 -5.973460 7.376185 7.866924 -12.570011 5.291276 -6.294001 2.731098 10.481591 36.997238 -1.987942 9.165847 8.595393 2.258800 -9.385600 -27.009100 2.410995 -7.643845 6.001770 1.934618 2.282452 -10.266229 -4.294971 -13.439707 42.095753 -0.827139 -4.010014 7.875919 -2.885900 10.508000 -30.637900 1.252754 0.145654 -8.242692 2.761439 -0.502683 2.753635 4.713674 0.434387 8.047979 5.644593 2.450868 5.059070 3.444986 3.148877 1.138185 -2.606000 1.236800 -4.338800 -7.213244 -9.193357 0.568731 6.442081 -17.921107 -51.115290 122.990068 -59.553621 -100.237323 0.154944 -2.502746 -31.299810 -28.693121 19.564742 -11.239500 -7.125000 0.000000 0.000000 -50.562200 45.882800 -1.500800 10.018200 10.529314 2.497285 -16.964802 28.802085 -76.297869 -78.447954 62.730826 -70.324895 1.514509 1.319377 -38.109508 30.085075 1.278791 0.621200 7.125000 0.000000 0.000000 38.387400 -26.242600 22.809400 
